<mxfile host="app.diagrams.net" modified="2022-09-05T11:36:10.233Z" agent="5.0 (X11)" etag="XtZQrxyc9LJd6XbEKJlh" version="20.2.8" type="github">
  <diagram id="SxvGs1MgPhz-BOlLEVMJ" name="Страница 1">
    <mxGraphModel dx="2056" dy="734" grid="1" gridSize="10" guides="1" tooltips="1" connect="1" arrows="1" fold="1" page="1" pageScale="1" pageWidth="827" pageHeight="1169" math="0" shadow="0">
      <root>
        <mxCell id="0" />
        <mxCell id="1" parent="0" />
        <mxCell id="J1NBkm5F0e_okl7A6YDC-1" value="" style="outlineConnect=0;dashed=0;verticalLabelPosition=bottom;verticalAlign=top;align=center;html=1;shape=mxgraph.aws3.cloud_2;fillColor=#F58534;gradientColor=none;" parent="1" vertex="1">
          <mxGeometry x="60" y="80" width="75" height="75" as="geometry" />
        </mxCell>
        <mxCell id="J1NBkm5F0e_okl7A6YDC-4" value="" style="rounded=1;arcSize=10;dashed=1;fillColor=none;gradientColor=none;dashPattern=1 1;strokeWidth=2;" parent="1" vertex="1">
          <mxGeometry x="40" y="40" width="700" height="419.5" as="geometry" />
        </mxCell>
        <mxCell id="J1NBkm5F0e_okl7A6YDC-6" value="" style="endArrow=classic;html=1;rounded=0;fontStyle=1;fontSize=15;" parent="1" target="J1NBkm5F0e_okl7A6YDC-9" edge="1">
          <mxGeometry width="50" height="50" relative="1" as="geometry">
            <mxPoint x="-140" y="240" as="sourcePoint" />
            <mxPoint x="340" y="360" as="targetPoint" />
            <Array as="points">
              <mxPoint x="-80" y="240" />
            </Array>
          </mxGeometry>
        </mxCell>
        <mxCell id="J1NBkm5F0e_okl7A6YDC-7" value="HTTP Request" style="text;html=1;align=center;verticalAlign=middle;resizable=0;points=[];autosize=1;strokeColor=none;fillColor=none;fontSize=22;fontStyle=1" parent="1" vertex="1">
          <mxGeometry x="-313" y="220" width="170" height="40" as="geometry" />
        </mxCell>
        <mxCell id="J1NBkm5F0e_okl7A6YDC-9" value="&lt;div&gt;&lt;b&gt;API Gateway&lt;/b&gt;&lt;/div&gt;" style="whiteSpace=wrap;html=1;aspect=fixed;fontSize=22;" parent="1" vertex="1">
          <mxGeometry x="120" y="185" width="110" height="110" as="geometry" />
        </mxCell>
        <mxCell id="J1NBkm5F0e_okl7A6YDC-10" value="&lt;p style=&quot;line-height: 0;&quot;&gt;&lt;b&gt;&lt;font style=&quot;font-size: 22px;&quot;&gt;Lambda&lt;/font&gt;&lt;/b&gt;&lt;/p&gt;" style="outlineConnect=0;dashed=0;verticalLabelPosition=bottom;verticalAlign=top;align=center;html=1;shape=mxgraph.aws3.lambda;fillColor=#F58534;gradientColor=none;fontSize=15;" parent="1" vertex="1">
          <mxGeometry x="330" y="193.5" width="76.5" height="93" as="geometry" />
        </mxCell>
        <mxCell id="J1NBkm5F0e_okl7A6YDC-11" value="" style="endArrow=classic;html=1;rounded=0;fontSize=15;exitX=1;exitY=0.5;exitDx=0;exitDy=0;" parent="1" source="J1NBkm5F0e_okl7A6YDC-9" target="J1NBkm5F0e_okl7A6YDC-10" edge="1">
          <mxGeometry width="50" height="50" relative="1" as="geometry">
            <mxPoint x="290" y="410" as="sourcePoint" />
            <mxPoint x="340" y="360" as="targetPoint" />
          </mxGeometry>
        </mxCell>
        <mxCell id="J1NBkm5F0e_okl7A6YDC-12" value="&lt;p style=&quot;line-height: 1.1;&quot;&gt;&lt;b&gt;&lt;font style=&quot;font-size: 22px;&quot;&gt;DocumentDB &lt;br&gt;&lt;/font&gt;&lt;/b&gt;&lt;/p&gt;&lt;p style=&quot;line-height: 1.1;&quot;&gt;&lt;b&gt;&lt;font style=&quot;font-size: 22px;&quot;&gt;(or MongoDB)&lt;/font&gt;&lt;/b&gt;&lt;/p&gt;" style="sketch=0;points=[[0,0,0],[0.25,0,0],[0.5,0,0],[0.75,0,0],[1,0,0],[0,1,0],[0.25,1,0],[0.5,1,0],[0.75,1,0],[1,1,0],[0,0.25,0],[0,0.5,0],[0,0.75,0],[1,0.25,0],[1,0.5,0],[1,0.75,0]];outlineConnect=0;fontColor=#232F3E;gradientColor=#4D72F3;gradientDirection=north;fillColor=#3334B9;strokeColor=#ffffff;dashed=0;verticalLabelPosition=bottom;verticalAlign=top;align=center;html=1;fontSize=12;fontStyle=0;aspect=fixed;shape=mxgraph.aws4.resourceIcon;resIcon=mxgraph.aws4.documentdb_with_mongodb_compatibility;" parent="1" vertex="1">
          <mxGeometry x="540" y="201" width="78" height="78" as="geometry" />
        </mxCell>
        <mxCell id="J1NBkm5F0e_okl7A6YDC-13" value="" style="endArrow=classic;html=1;rounded=0;fontSize=22;entryX=0;entryY=0.5;entryDx=0;entryDy=0;entryPerimeter=0;exitX=1;exitY=0.5;exitDx=0;exitDy=0;exitPerimeter=0;" parent="1" source="J1NBkm5F0e_okl7A6YDC-10" target="J1NBkm5F0e_okl7A6YDC-12" edge="1">
          <mxGeometry width="50" height="50" relative="1" as="geometry">
            <mxPoint x="290" y="410" as="sourcePoint" />
            <mxPoint x="340" y="360" as="targetPoint" />
          </mxGeometry>
        </mxCell>
      </root>
    </mxGraphModel>
  </diagram>
</mxfile>
